<?xml version="1.0" encoding="UTF-8" standalone="no"?>
<!-- Created with Inkscape (http://www.inkscape.org/) -->

<svg
   width="357.71664mm"
   height="144.2394mm"
   viewBox="0 0 357.71664 144.2394"
   version="1.1"
   id="svg1"
   xml:space="preserve"
   xmlns:inkscape="http://www.inkscape.org/namespaces/inkscape"
   xmlns:sodipodi="http://sodipodi.sourceforge.net/DTD/sodipodi-0.dtd"
   xmlns="http://www.w3.org/2000/svg"
   xmlns:svg="http://www.w3.org/2000/svg"><sodipodi:namedview
     id="namedview1"
     pagecolor="#ffffff"
     bordercolor="#000000"
     borderopacity="0.25"
     inkscape:showpageshadow="2"
     inkscape:pageopacity="0.0"
     inkscape:pagecheckerboard="0"
     inkscape:deskcolor="#d1d1d1"
     inkscape:document-units="mm" /><defs
     id="defs1" /><g
     inkscape:label="Capa 1"
     inkscape:groupmode="layer"
     id="layer1"
     transform="translate(408.84318,-289.78631)"><path
       style="fill:#fdfdfd"
       d="m -124.34263,401.99925 c -1.19652,-0.1191 -3.10152,-0.47031 -4.23333,-0.78047 -2.26587,-0.62094 -5.34962,-2.0343 -5.54405,-2.54097 -0.13233,-0.34484 2.55836,-5.45773 2.80867,-5.33709 0.0816,0.0393 1.04133,0.51428 2.13274,1.05544 3.48499,1.72802 7.64773,2.19086 10.91729,1.21386 2.41952,-0.72299 4.16396,-3.4926 4.16396,-6.61101 v -1.27445 l -1.30985,0.94103 c -5.89519,4.23527 -15.46241,2.06923 -18.85592,-4.26901 -3.13743,-5.85995 -1.31544,-13.5415 4.00916,-16.90278 4.79077,-3.02428 12.18109,-2.76433 15.38489,0.54114 0.48154,0.49683 0.97123,0.90332 1.08821,0.90332 0.11697,0 0.21268,-0.71437 0.21268,-1.5875 v -1.5875 h 3.59575 3.59576 l -0.11916,12.63386 c -0.13119,13.90879 -0.19374,14.51117 -1.82446,17.57072 -2.4339,4.56647 -8.35331,6.79475 -16.02234,6.03141 z m 6.72792,-18.01649 c 1.26059,-0.5985 2.61478,-2.01941 3.15358,-3.30894 0.20008,-0.47886 0.36378,-1.625 0.36378,-2.54699 0,-3.9896 -2.78252,-6.54656 -7.11709,-6.54015 -2.17519,0.003 -3.98546,0.786 -5.37024,2.32215 -2.51811,2.79339 -1.81466,7.66161 1.39371,9.6452 2.15979,1.3353 5.29335,1.51262 7.57626,0.42873 z m -281.92361,8.48021 c -3.62965,-0.55746 -9.30485,-2.87131 -9.30485,-3.79371 0,-0.20165 0.5478,-1.55543 1.21735,-3.00841 l 1.21735,-2.64177 2.28837,1.1697 c 3.30156,1.68759 5.99403,2.29149 9.66473,2.1677 3.38783,-0.11425 4.67495,-0.58013 5.65089,-2.04537 1.1104,-1.66712 0.59532,-3.22015 -1.43091,-4.31435 -0.70267,-0.37945 -3.41571,-1.24052 -6.02899,-1.91348 -6.96978,-1.79483 -9.57859,-3.20281 -11.13248,-6.00824 -0.73029,-1.31846 -0.78486,-1.61015 -0.78486,-4.19511 0,-2.4987 0.0736,-2.92785 0.73135,-4.26677 2.72875,-5.55436 11.12684,-7.8917 20.24026,-5.63324 2.31269,0.57313 5.08985,1.82754 5.08985,2.29903 0,0.34974 -1.99792,5.45376 -2.22288,5.67872 -0.0582,0.0582 -0.68314,-0.18635 -1.38883,-0.54336 -4.41705,-2.23462 -10.46943,-2.64511 -13.10687,-0.88896 -0.48191,0.32089 -1.09993,1.03998 -1.37337,1.59798 -0.69158,1.41129 -0.27112,2.83019 1.10432,3.72662 0.97048,0.6325 1.63928,0.84156 8.45083,2.64158 1.92596,0.50896 4.14338,1.22892 4.9276,1.59991 1.91874,0.90771 3.6064,2.44295 4.40545,4.00755 0.57227,1.12057 0.65896,1.63837 0.65896,3.93615 0,2.31715 -0.0881,2.83385 -0.70937,4.15934 -1.26957,2.70872 -4.15844,4.87356 -7.90159,5.92121 -1.76995,0.49539 -7.93873,0.70414 -10.26231,0.34728 z m 67.29202,0.11536 c -10.70774,-1.70505 -17.17123,-10.91112 -15.07276,-21.46841 1.27404,-6.40962 6.13938,-11.40464 12.97106,-13.31678 2.67002,-0.74732 7.48938,-0.80743 10.30378,-0.12851 2.70997,0.65372 5.83218,2.2633 7.67292,3.95557 l 1.5875,1.45947 -2.51354,2.36338 -2.51355,2.36339 -1.19062,-1.05854 c -0.65484,-0.58219 -1.96453,-1.42886 -2.91042,-1.88148 -1.62923,-0.77961 -1.88698,-0.82295 -4.89479,-0.82295 -2.89082,0 -3.31041,0.0635 -4.6879,0.7091 -4.41198,2.06789 -6.85204,6.8527 -6.11248,11.9862 0.15818,1.098 0.60798,2.64463 1.00529,3.45672 3.10057,6.33732 12.16565,7.88957 17.478,2.99281 0.7957,-0.73345 1.26865,-0.99473 1.52654,-0.84334 0.2055,0.12064 1.3726,1.15422 2.59356,2.29685 l 2.21991,2.07751 -1.65765,1.53097 c -1.79583,1.65859 -4.53722,3.1465 -7.0736,3.83925 -1.5704,0.42892 -7.14677,0.74109 -8.73125,0.48879 z m 137.68717,-0.46175 c -2.90351,-0.83383 -5.14844,-2.63104 -6.32666,-5.06492 -1.10944,-2.2918 -1.30835,-4.26388 -1.31321,-13.02017 l -0.005,-8.26823 h 3.83646 3.83646 v 7.76316 c 0,8.52059 0.15466,9.66478 1.49559,11.0644 0.97935,1.02223 3.00214,1.61056 4.78362,1.39133 2.07023,-0.25476 3.54453,-1.30786 4.47021,-3.19307 l 0.75995,-1.54769 0.0808,-7.73907 0.0808,-7.73906 h 3.68947 3.68947 v 13.22917 13.22917 h -3.57188 -3.57187 v -1.46768 -1.46768 l -0.99219,0.79344 c -0.5457,0.4364 -1.70656,1.12278 -2.57969,1.52531 -1.36773,0.63055 -1.97209,0.74085 -4.36562,0.79677 -1.70889,0.0399 -3.24732,-0.0698 -3.9972,-0.28518 z m 34.07803,-0.0139 c -3.38783,-0.96762 -6.22587,-3.21306 -7.80451,-6.17488 -2.34488,-4.39945 -2.12593,-10.81528 0.50923,-14.92182 2.52043,-3.92775 7.99761,-6.29337 12.82952,-5.54111 1.98898,0.30966 4.42665,1.3573 5.46149,2.34719 l 0.7276,0.696 v -6.3995 -6.3995 h 3.83646 3.83646 v 18.25625 18.25625 h -3.57187 -3.57188 v -1.45521 c 0,-0.80037 -0.0736,-1.45521 -0.16351,-1.45521 -0.0899,0 -0.59051,0.37491 -1.1124,0.83314 -0.5219,0.45823 -1.60918,1.13954 -2.41618,1.51402 -1.25443,0.58209 -1.88949,0.69007 -4.3777,0.74432 -1.859,0.0405 -3.37005,-0.0678 -4.18271,-0.29994 z m 8.15924,-6.43632 c 1.30272,-0.66973 2.2646,-1.68705 3.05815,-3.23439 0.48332,-0.94242 0.61294,-1.63188 0.62178,-3.30729 0.0138,-2.61218 -0.40046,-3.8462 -1.80448,-5.37549 -1.44479,-1.57369 -2.76796,-2.15204 -4.94014,-2.15932 -4.36803,-0.0146 -7.15216,3.32403 -6.80603,8.16165 0.22547,3.15115 2.00026,5.44462 4.96644,6.41786 1.08984,0.35759 3.76373,0.0833 4.90428,-0.50302 z m 61.838705,6.41851 c -3.708418,-0.80558 -7.486017,-3.55054 -9.124163,-6.63 -2.718942,-5.11114 -1.790492,-12.02385 2.141866,-15.94719 2.74552,-2.73922 6.181445,-4.09937 10.355603,-4.09937 8.190816,0 13.758333,5.46596 13.758333,13.50738 v 2.19337 h -10.054166 c -11.304062,0 -10.650485,-0.138 -9.405819,1.98587 1.298863,2.21634 3.551644,3.33402 6.759986,3.35384 2.493454,0.0154 3.836621,-0.34603 5.536173,-1.48975 l 1.34096,-0.90239 1.432787,1.50277 c 0.788033,0.82653 1.682262,1.82024 1.987176,2.20824 l 0.554389,0.70546 -1.116402,0.9556 c -1.332423,1.1405 -3.308738,2.1127 -5.404405,2.65855 -1.896977,0.4941 -6.482581,0.49286 -8.762318,-0.002 z m 9.886264,-16.33363 c -0.46447,-2.3806 -3.100358,-4.47331 -5.855348,-4.64873 -3.473515,-0.22118 -6.098872,1.58944 -7.124212,4.91332 l -0.18364,0.59531 h 6.665486 6.665485 z m 19.14502,16.14658 c -2.026964,-0.70742 -3.028814,-1.43217 -4.031112,-2.91617 -1.353116,-2.00341 -1.518533,-3.12561 -1.518533,-10.30187 v -6.56656 h -2.116666 -2.116667 v -2.91041 -2.91042 h 2.116667 2.116666 v -3.175 -3.175 h 3.704167 3.704166 v 3.175 3.175 h 3.307292 3.307292 v 2.91042 2.91041 h -3.307292 -3.307292 l 0.01493,5.75469 c 0.0163,6.28277 0.175368,7.20815 1.394234,8.11116 0.914809,0.67774 3.075083,0.73263 4.321851,0.10981 l 0.836227,-0.41773 0.949711,2.51177 c 0.52234,1.38148 0.94971,2.60254 0.94971,2.71346 0,0.11092 -0.625078,0.47803 -1.389063,0.8158 -2.098064,0.92757 -6.545675,1.01997 -8.936292,0.18564 z M -374.71193,375.02368 v -17.19792 h 3.83412 3.83412 l 0.0685,13.95677 0.0685,13.95677 8.66511,0.0698 8.6651,0.0698 v 3.17138 3.17139 h -12.56771 -12.56771 z m 135.46667,0.0224 v -17.22036 h 10.14413 c 9.1706,0 10.33658,0.0492 12.14942,0.51287 3.57182,0.91351 5.56775,2.35543 6.8263,4.93149 0.88714,1.81583 0.88742,4.92626 6.4e-4,6.9327 -0.56725,1.28347 -2.86314,3.76253 -3.48453,3.76253 -0.61248,0 -0.11276,0.44674 1.0218,0.91345 1.78714,0.73516 3.56457,2.6122 4.28596,4.52614 0.48902,1.29745 0.57424,1.96449 0.48812,3.82082 -0.20603,4.44077 -2.4355,6.84701 -7.75164,8.36623 -1.35249,0.38652 -3.22276,0.47002 -12.63385,0.56409 l -11.04635,0.11041 z m 19.3083,11.07264 c 2.9612,-0.48043 4.23961,-1.73226 4.23961,-4.15146 0,-1.62004 -0.75571,-2.83422 -2.24896,-3.61331 -0.97069,-0.50646 -1.57871,-0.5591 -7.34218,-0.63564 l -6.28386,-0.0835 v 4.20655 c 0,2.3136 0.0794,4.28592 0.17639,4.38293 0.28419,0.28419 9.58476,0.19847 11.459,-0.10561 z m 0.38608,-14.93154 c 1.35288,-0.68753 2.03143,-1.64699 2.17727,-3.07863 0.1621,-1.59125 -0.52215,-2.8285 -2.0279,-3.66683 -1.14649,-0.6383 -1.39415,-0.66604 -6.68073,-0.74818 l -5.49011,-0.0853 v 3.94381 c 0,2.1691 0.0878,4.03164 0.19517,4.13898 0.10734,0.10734 2.57789,0.15695 5.49011,0.11024 4.66765,-0.0749 5.41829,-0.14761 6.33619,-0.61409 z"
       id="path87" /><path
       style="fill:#78c9e3"
       d="m -296.56161,337.04933 c 0.13871,-0.36149 0.10147,-0.40118 -0.1672,-0.17821 -0.65651,0.54486 -1.04242,-0.15265 -1.91558,-3.46233 -2.0744,-7.863 -1.89837,-16.49934 0.52478,-25.74547 1.55074,-5.91727 3.9141,-11.38177 6.72252,-15.54368 1.7911,-2.65429 2.05648,-2.84064 2.24386,-1.57568 0.0818,0.55202 0.21926,2.07524 0.30552,3.38493 0.57983,8.80367 2.36285,15.9688 6.22196,25.00312 1.07215,2.50995 6.06435,13.21552 7.45097,15.97831 0.80608,1.60607 0.96855,2.13665 0.7043,2.29997 -0.18892,0.11675 -0.47533,0.10287 -0.63647,-0.0309 -0.18289,-0.15178 -0.42452,-0.12123 -0.64301,0.0813 -0.27695,0.25671 -0.31104,0.25539 -0.16329,-0.006 0.11922,-0.21117 0.0137,-0.332 -0.29192,-0.33424 -0.36287,-0.003 -1.24107,-1.58649 -3.63095,-6.54843 -4.20426,-8.72903 -6.28837,-13.6223 -7.97127,-18.71577 -1.44073,-4.36051 -2.6127,-9.45092 -2.92393,-12.7 -0.27239,-2.84368 -0.43709,-2.88135 -1.62796,-0.37234 -5.67021,11.94637 -7.04175,26.3458 -3.49213,36.66295 0.52653,1.53036 0.6438,2.15919 0.3474,1.8628 -0.0919,-0.0919 -0.4076,-0.0384 -0.70158,0.11897 -0.45728,0.24473 -0.50871,0.21887 -0.35602,-0.17902 z"
       id="path86" /><path
       style="fill:#8698e4"
       d="m -123.15933,402.10053 c 0.1819,-0.0734 0.47956,-0.0734 0.66146,0 0.1819,0.0734 0.0331,0.13346 -0.33073,0.13346 -0.3638,0 -0.51263,-0.0601 -0.33073,-0.13346 z m 2.91042,0 c 0.1819,-0.0734 0.47956,-0.0734 0.66146,0 0.1819,0.0734 0.0331,0.13346 -0.33073,0.13346 -0.36381,0 -0.51263,-0.0601 -0.33073,-0.13346 z m -3.15847,-6.09092 c 0.191,-0.0764 0.4192,-0.067 0.50712,0.0209 0.0879,0.0879 -0.0684,0.15046 -0.34726,0.13897 -0.30823,-0.0127 -0.37092,-0.0754 -0.15986,-0.15985 z m 2.38125,0 c 0.191,-0.0764 0.4192,-0.067 0.50712,0.0209 0.0879,0.0879 -0.0683,0.15046 -0.34726,0.13897 -0.30823,-0.0127 -0.37092,-0.0754 -0.15986,-0.15985 z m -70.13111,-3.43408 c 0.1819,-0.0734 0.47955,-0.0734 0.66145,0 0.18191,0.0734 0.0331,0.13346 -0.33072,0.13346 -0.36381,0 -0.51263,-0.0601 -0.33073,-0.13346 z m 34.13125,0 c 0.1819,-0.0734 0.47955,-0.0734 0.66145,0 0.1819,0.0734 0.0331,0.13346 -0.33073,0.13346 -0.3638,0 -0.51263,-0.0601 -0.33072,-0.13346 z m 70.643746,0 c 0.181901,-0.0734 0.479557,-0.0734 0.661458,0 0.181901,0.0734 0.03307,0.13346 -0.330729,0.13346 -0.363802,0 -0.51263,-0.0601 -0.330729,-0.13346 z m 28.839582,0 c 0.181901,-0.0734 0.479557,-0.0734 0.661458,0 0.181902,0.0734 0.03307,0.13346 -0.330729,0.13346 -0.363802,0 -0.51263,-0.0601 -0.330729,-0.13346 z m -317.304428,-17.68414 0.003,-17.19792 h 3.96875 3.96875 l 0.0685,13.95316 0.0685,13.95316 8.66277,0.0753 8.66276,0.0754 -8.73125,-0.006 -8.73125,-0.006 -0.0685,-13.95677 -0.0685,-13.95677 h -3.8322 -3.8322 l -0.0709,17.13177 -0.0709,17.13177 z m 155.92513,17.14947 c 0.191,-0.0764 0.4192,-0.067 0.50712,0.0209 0.0879,0.0879 -0.0683,0.15046 -0.34726,0.13897 -0.30823,-0.0127 -0.37092,-0.0754 -0.15986,-0.15985 z m 43.56407,-13.04843 c 0,-7.3488 0.034,-10.35513 0.0754,-6.68073 0.0415,3.6744 0.0415,9.68706 0,13.36146 -0.0415,3.6744 -0.0754,0.66807 -0.0754,-6.68073 z m 26.94669,11.77396 c 0.001,-0.87313 0.0509,-1.19842 0.10977,-0.72287 0.0589,0.47555 0.0577,1.18993 -0.003,1.5875 -0.0604,0.39758 -0.10855,0.008 -0.10707,-0.86463 z m 41.77376,-1.5875 c 0.005,-0.43656 0.0647,-0.58313 0.13178,-0.3257 0.0671,0.25744 0.0627,0.61462 -0.01,0.79375 -0.0725,0.17914 -0.12736,-0.0315 -0.12197,-0.46805 z m 20.536315,-2.69428 c 0.190997,-0.0764 0.4192,-0.067 0.507118,0.0209 0.08792,0.0879 -0.06835,0.15046 -0.347265,0.13897 -0.308225,-0.0127 -0.370919,-0.0754 -0.159853,-0.15985 z m 29.484505,-0.002 c 0.254661,-0.0665 0.67138,-0.0665 0.926041,0 0.254662,0.0666 0.0463,0.121 -0.46302,0.121 -0.509323,0 -0.717683,-0.0545 -0.463021,-0.121 z m -174.83893,-0.42369 c -0.0721,-0.18801 -0.0948,-2.1823 -0.0504,-4.43177 l 0.0807,-4.08993 0.0587,4.29389 0.0587,4.29388 5.22552,0.0777 5.22552,0.0777 -5.23383,0.0602 c -4.07758,0.0469 -5.2628,-0.0153 -5.365,-0.28162 z m 41.75351,-0.10512 c 0.25467,-0.0666 0.67139,-0.0666 0.92605,0 0.25466,0.0666 0.0463,0.121 -0.46302,0.121 -0.50933,0 -0.71769,-0.0545 -0.46303,-0.121 z m 68.2625,-1.32292 c 0.25466,-0.0665 0.67138,-0.0665 0.92604,0 0.25467,0.0666 0.0463,0.121 -0.46302,0.121 -0.50932,0 -0.71768,-0.0545 -0.46302,-0.121 z m 61.95947,-6.69678 c 0,-3.27422 0.03798,-4.61368 0.0844,-2.97657 0.04642,1.63711 0.04642,4.31602 0,5.95313 -0.04642,1.63711 -0.0844,0.29765 -0.0844,-2.97656 z m -277.28929,4.96093 -0.50403,-0.59531 0.59532,0.50403 c 0.55944,0.47366 0.71576,0.6866 0.50403,0.6866 -0.0502,0 -0.3181,-0.26789 -0.59532,-0.59532 z m 129.0304,-0.0882 c 0.0127,-0.30823 0.0754,-0.37092 0.15985,-0.15985 0.0764,0.19099 0.067,0.4192 -0.0209,0.50711 -0.0879,0.0879 -0.15046,-0.0684 -0.13897,-0.34726 z m 81.31335,-0.17639 -0.50403,-0.59531 0.59531,0.50403 c 0.55945,0.47366 0.71576,0.68659 0.50403,0.68659 -0.0502,0 -0.3181,-0.26789 -0.59531,-0.59531 z m 59.271504,-5.09323 c 2.15e-4,-3.05594 0.03873,-4.26986 0.08559,-2.6976 0.04686,1.57226 0.04668,4.07257 -3.92e-4,5.55625 -0.04707,1.48368 -0.08541,0.19729 -0.0852,-2.85865 z m -313.327074,4.49792 c 0.005,-0.43656 0.0647,-0.58313 0.13177,-0.3257 0.0671,0.25743 0.0627,0.61462 -0.01,0.79375 -0.0725,0.17914 -0.12736,-0.0315 -0.12197,-0.46805 z m 83.87645,-2.18649 c -0.49493,-0.16498 -0.38193,-3.30017 0.21681,-6.0156 1.20792,-5.47823 4.51565,-13.62604 5.53171,-13.62604 0.37616,0 0.74435,1.40125 1.47979,5.63175 0.7691,4.42404 1.78085,8.05061 3.15498,11.30879 0.9923,2.35284 1.10453,2.77236 0.66978,2.50367 -0.1479,-0.0914 -0.18457,-0.30679 -0.0815,-0.47864 0.10306,-0.17184 -0.0278,-0.13764 -0.29079,0.076 -0.26301,0.21365 -0.77132,0.40411 -1.12959,0.42325 -0.5112,0.0273 -0.62383,-0.0706 -0.52331,-0.45497 0.0704,-0.26937 0.0327,-0.43084 -0.0838,-0.35882 -0.40952,0.25309 -2.45368,-5.49226 -3.32308,-9.33989 -0.34291,-1.51756 -0.67641,-2.81214 -0.74112,-2.87684 -0.192,-0.19201 -1.97902,5.41197 -2.54644,7.98547 -0.28877,1.30969 -0.52761,2.87855 -0.53076,3.48635 -0.005,0.94245 -0.11444,1.15934 -0.74436,1.47358 -0.40625,0.20267 -0.8825,0.32053 -1.05833,0.26192 z m 0.39021,-0.64125 c -0.0845,-0.21106 -0.14716,-0.14837 -0.15985,0.15986 -0.0115,0.27891 0.051,0.43518 0.13896,0.34726 0.0879,-0.0879 0.0973,-0.31612 0.0209,-0.50712 z m 34.0828,0.55047 c -0.59095,-0.12929 -0.64564,-0.18166 -0.21405,-0.20497 0.31883,-0.0172 0.64265,-0.13317 0.71959,-0.25767 0.077,-0.1245 -0.14643,-0.17162 -0.49639,-0.10472 -0.72467,0.13853 -0.69885,0.23437 -1.17743,-4.36948 -0.55169,-5.30721 -2.65755,-13.36801 -5.16233,-19.76036 -1.15068,-2.93661 -4.91295,-11.25975 -6.7632,-14.96199 -1.32373,-2.64872 -1.47811,-3.175 -0.93132,-3.175 0.27384,0 0.35806,0.12026 0.23162,0.33073 -0.14894,0.24792 -0.0925,0.2447 0.22542,-0.0129 0.25314,-0.20508 0.48703,-0.24175 0.58021,-0.091 0.0859,0.13893 0.37429,0.19554 0.64095,0.12581 0.3859,-0.10092 0.65213,0.24157 1.30474,1.67848 0.45095,0.9929 1.83217,3.96546 3.06937,6.60567 5.27777,11.26292 8.25584,20.92732 9.1488,29.68962 0.34611,3.39629 0.35837,4.80611 0.0374,4.29919 -0.19915,-0.31451 -0.24749,-0.31354 -0.32668,0.007 -0.0671,0.27138 -0.31328,0.32746 -0.88669,0.20199 z m -13.30826,-4.80186 c -2.71491,-5.39089 -6.05371,-10.90725 -12.53005,-20.70212 -5.24331,-7.93004 -7.10273,-11.05783 -8.61218,-14.48684 -1.26327,-2.86979 -1.28802,-2.95833 -0.77133,-2.76006 0.20054,0.077 0.50526,4e-4 0.67713,-0.17013 0.23972,-0.23785 0.26869,-0.19505 0.12441,0.18374 -0.16028,0.42081 -0.1137,0.454 0.31506,0.22453 0.86538,-0.46314 0.93906,-0.39645 1.8324,1.65854 1.2755,2.93409 3.5606,6.74498 9.12501,15.21793 6.40129,9.74725 9.04911,14.1802 11.77373,19.71145 2.54023,5.1569 2.67639,5.59141 1.71679,5.47827 -0.52306,-0.0617 -0.57842,-0.021 -0.26459,0.19438 0.2424,0.16636 0.27422,0.27395 0.0818,0.27643 -0.17332,0.002 -0.39656,-0.12772 -0.4961,-0.28878 -0.13154,-0.21284 -0.23016,-0.21326 -0.36101,-0.002 -0.099,0.16022 -1.27399,-1.8809 -2.61104,-4.53581 z m 222.561438,-5.75316 c 0,-1.67349 0.04296,-2.3581 0.09547,-1.52136 0.05251,0.83675 0.05251,2.20596 0,3.04271 -0.05251,0.83674 -0.09547,0.15214 -0.09547,-1.52135 z m -178.587308,-1.5875 c 0,-2.25558 0.0406,-3.17831 0.0902,-2.05053 0.0496,1.12779 0.0496,2.97326 0,4.10105 -0.0496,1.12778 -0.0902,0.20505 -0.0902,-2.05052 z m 117.71777,-0.26459 c 0,-0.94588 0.048,-1.33284 0.10671,-0.85989 0.0587,0.47294 0.0587,1.24685 0,1.71979 -0.0587,0.47294 -0.10671,0.086 -0.10671,-0.8599 z m -0.91219,0.8599 c -0.3291,-0.41965 -0.31974,-0.429 0.0999,-0.0999 0.25466,0.19972 0.46302,0.40808 0.46302,0.46302 0,0.21777 -0.21727,0.0776 -0.56292,-0.36312 z m -285.93905,-0.8599 c 0,-0.3638 0.0601,-0.51263 0.13346,-0.33073 0.0734,0.1819 0.0734,0.47956 0,0.66146 -0.0734,0.1819 -0.13346,0.0331 -0.13346,-0.33073 z m 333.452768,-4.29905 0.01274,-3.24157 h 3.836458 3.836458 l 0.01274,3.24157 0.01275,3.24158 -0.08703,-3.17543 -0.08703,-3.17543 h -3.687879 -3.68788 l -0.08703,3.17543 -0.08704,3.17543 z m -91.185818,2.26623 c 0.19099,-0.0764 0.41919,-0.067 0.50711,0.0209 0.0879,0.0879 -0.0684,0.15045 -0.34726,0.13896 -0.30823,-0.0127 -0.37092,-0.0754 -0.15985,-0.15985 z m 34.13124,0 c 0.191,-0.0764 0.4192,-0.067 0.50712,0.0209 0.0879,0.0879 -0.0683,0.15045 -0.34726,0.13896 -0.30823,-0.0127 -0.37092,-0.0754 -0.15986,-0.15985 z m 35.454172,0 c 0.190996,-0.0764 0.419199,-0.067 0.507118,0.0209 0.08792,0.0879 -0.06835,0.15045 -0.347265,0.13896 -0.308225,-0.0127 -0.37092,-0.0754 -0.159853,-0.15985 z m 2.910417,0 c 0.190996,-0.0764 0.419199,-0.067 0.507118,0.0209 0.08792,0.0879 -0.06835,0.15045 -0.347266,0.13896 -0.308224,-0.0127 -0.370919,-0.0754 -0.159852,-0.15985 z m -148.994019,-7.69012 c 2.50085,-0.0434 6.66804,-0.0435 9.26042,-1.6e-4 2.59238,0.0434 0.54623,0.0789 -4.547,0.079 -5.09323,9e-5 -7.21427,-0.0354 -4.71342,-0.0788 z m -161.36222,-0.51197 c 0.19099,-0.0764 0.41919,-0.067 0.50711,0.0209 0.0879,0.0879 -0.0684,0.15046 -0.34726,0.13897 -0.30823,-0.0127 -0.37092,-0.0754 -0.15985,-0.15986 z m 3.96875,0 c 0.19099,-0.0764 0.41919,-0.067 0.50711,0.0209 0.0879,0.0879 -0.0684,0.15046 -0.34726,0.13897 -0.30823,-0.0127 -0.37092,-0.0754 -0.15985,-0.15986 z m 64.82291,0 c 0.191,-0.0764 0.4192,-0.067 0.50712,0.0209 0.0879,0.0879 -0.0684,0.15046 -0.34727,0.13897 -0.30822,-0.0127 -0.37092,-0.0754 -0.15985,-0.15986 z m 29.49042,-34.74426 c 0,-0.65484 0.0516,-0.92273 0.11466,-0.59531 0.0631,0.32742 0.0631,0.8632 0,1.19063 -0.0631,0.32742 -0.11466,0.0595 -0.11466,-0.59532 z"
       id="path85" /><path
       style="fill:#9066e0"
       d="m -277.44646,432.37212 c -0.0788,-0.90951 -0.20545,-3.32052 -0.28139,-5.35781 -0.32523,-8.72549 -1.81936,-12.18808 -12.15907,-28.17813 -2.87131,-4.44041 -5.52456,-9.7847 -6.23744,-12.56375 -0.73121,-2.85049 -1.02324,-6.55232 -0.50998,-6.46475 0.20425,0.0349 0.69879,-0.0719 1.09897,-0.2371 0.65431,-0.2702 0.73197,-0.44106 0.77086,-1.69608 0.0238,-0.76759 0.12512,0.39032 0.22519,2.57314 0.1605,3.50092 0.28409,4.27284 1.04852,6.5485 1.03176,3.07152 3.01104,6.70664 6.88565,12.64617 7.23397,11.0892 9.66457,16.09858 10.7044,22.06143 0.22636,1.29802 0.45857,2.40705 0.51602,2.4645 0.25596,0.25596 0.68396,-2.82858 0.84084,-6.05975 0.15389,-3.16964 0.0987,-3.90736 -0.54137,-7.23377 -1.30232,-6.76823 -2.9196,-11.09552 -8.36978,-22.39462 -3.99534,-8.28301 -4.26506,-8.9632 -3.50505,-8.83926 0.26769,0.0437 0.70387,-0.11081 0.9693,-0.34324 0.40218,-0.3522 0.46831,-0.35772 0.39687,-0.0332 -0.0471,0.21419 0.0333,0.371 0.17887,0.34846 0.14552,-0.0225 1.68509,2.89449 3.42126,6.48229 7.41913,15.33163 9.33492,21.23898 9.60095,29.6045 0.16032,5.04122 -0.148,7.62591 -1.29851,10.88563 -0.74494,2.11061 -3.25423,7.44044 -3.50297,7.44044 -0.0599,0 -0.17332,-0.74414 -0.25214,-1.65364 z m 7.93295,-23.87871 c 0.20093,-1.01861 0.43759,-4.23327 0.52591,-7.14369 0.15842,-5.21977 0.14927,-5.34559 -0.67344,-9.26042 -0.95251,-4.53251 -2.09898,-8.68072 -3.03748,-10.99038 -0.35499,-0.87364 -0.5337,-1.51938 -0.39713,-1.43497 0.13657,0.0844 0.2483,0.004 0.2483,-0.17966 0,-0.25909 0.0706,-0.26256 0.3175,-0.0156 0.17463,0.17462 0.44252,0.31568 0.59532,0.31345 0.15279,-0.002 0.0992,-0.12409 -0.11907,-0.27081 -0.3013,-0.20251 -0.20573,-0.24565 0.39688,-0.17914 0.76605,0.0846 0.83412,0.20709 1.95065,3.51195 1.33604,3.95458 2.9229,10.96058 2.96299,13.08163 0.0151,0.80037 0.10659,2.05052 0.20324,2.77813 l 0.17572,1.32291 0.72921,-1.98437 c 1.79485,-4.88426 2.84173,-10.69102 2.84173,-15.76231 v -2.554 l 0.79375,0.1165 c 0.5845,0.0858 0.79375,0.0106 0.79375,-0.28513 0,-0.30826 0.0903,-0.28223 0.38846,0.11197 1.10346,1.45891 -0.0153,10.98262 -2.0332,17.30863 -1.45935,4.5749 -4.19125,10.01835 -6.24395,12.44137 l -0.78446,0.92598 z m -26.86086,-29.12615 c 0.0127,-0.30823 0.0754,-0.37092 0.15985,-0.15986 0.0764,0.191 0.067,0.4192 -0.0209,0.50712 -0.0879,0.0879 -0.15045,-0.0683 -0.13896,-0.34726 z m 33.58119,0.0529 c 0,-0.0558 0.29405,-0.15766 0.65345,-0.22636 0.3594,-0.0687 0.5905,-0.0231 0.51355,0.10144 -0.13548,0.21923 -1.167,0.32964 -1.167,0.12492 z m 1.87297,-2.96331 c 0.0127,-0.30823 0.0754,-0.37092 0.15985,-0.15985 0.0764,0.19099 0.067,0.4192 -0.0209,0.50711 -0.0879,0.0879 -0.15046,-0.0684 -0.13897,-0.34726 z"
       id="path84" /></g></svg>
